# xmcd CD database file
#
# Track frame offsets:
#	150
#	26492
#	43804
#	71353
#	108547
#	135263
#	151474
#	168024
#	186417
#	205191
#	227276
#	246290
#	267546
#	290011
#	311059
#	336780
#
# Disc length: 4755 seconds
#
# Revision: 64
# Processed by: cddbd v1.5.1PL0 Copyright (c) Steve Scherf et al.
# Submitted via: CDex 1.51
#
DISCID=e4129110
DTITLE=Dire Straits - Sultans Of Swing
DYEAR=1998
DGENRE=Rock
TTITLE0=Sultans Of Swing
TTITLE1=Lady Writer
TTITLE2=Romeo And Juliet
TTITLE3=Tunnel Of Love
TTITLE4=Private Investigations
TTITLE5=Twisting By The Pool
TTITLE6=Love Over Gold (Live)
TTITLE7=So Far Away
TTITLE8=Money For Nothing
TTITLE9=Brothers In Arms
TTITLE10=Walk Of Live
TTITLE11=Calling Elvis
TTITLE12=Heavy Fuel
TTITLE13=On Every Street
TTITLE14=Your Latest Trick (Live)
TTITLE15=Local Hero - Wild Theme (Live)
EXTD=YEAR: 1998
EXTT0=
EXTT1=
EXTT2=
EXTT3=
EXTT4=
EXTT5=
EXTT6=
EXTT7=
EXTT8=
EXTT9=
EXTT10=
EXTT11=
EXTT12=
EXTT13=
EXTT14=
EXTT15=
PLAYORDER=
